<svg width="18" height="18" viewBox="0 0 18 18" fill="none" xmlns="http://www.w3.org/2000/svg">
<path fill-rule="evenodd" clip-rule="evenodd" d="M11.3528 0.698045C10.2346 1.08037 9.27856 1.42384 9.22841 1.4613C9.17822 1.49876 9.1072 1.5843 9.07059 1.65137C9.00706 1.76769 9.0046 1.86135 9.01741 3.67269C9.03193 5.72618 9.02954 5.69734 9.24139 6.38033C9.36681 6.78478 9.70658 7.45293 9.98269 7.8381C10.288 8.26401 10.8578 8.85868 11.3084 9.22163C12.0551 9.82326 13.1935 10.4851 13.4943 10.4926C13.7831 10.4998 14.7204 9.97939 15.5666 9.34203C15.9662 9.04105 16.7554 8.23433 17.0354 7.84067C17.3136 7.44951 17.6521 6.78211 17.7779 6.3766C17.9924 5.68524 17.9936 5.6697 17.9936 3.60234V1.703L17.9117 1.58817C17.8666 1.52499 17.7826 1.44892 17.725 1.41912C17.5134 1.3097 13.6018 -0.00277425 13.4957 4.4057e-06C13.4353 0.00158719 12.471 0.315716 11.3528 0.698045ZM15.2099 3.02037C14.9799 3.07524 14.8496 3.21175 14.0542 4.23155C13.6093 4.80202 13.2319 5.26974 13.2156 5.27091C13.1994 5.2721 13.0189 5.12874 12.8146 4.95238C12.6104 4.77602 12.3783 4.60227 12.299 4.56625C11.8126 4.34533 11.259 4.72372 11.2582 5.27783C11.2578 5.5493 11.401 5.72203 12.1725 6.38075C12.5691 6.71936 12.9489 7.02339 13.0166 7.05642C13.0896 7.09202 13.2196 7.11583 13.3359 7.11491C13.6917 7.11214 13.714 7.09022 14.9024 5.57818C15.4948 4.82449 16.0075 4.15863 16.0417 4.09852C16.2051 3.81211 16.1518 3.48068 15.9025 3.23134C15.6936 3.02248 15.4774 2.9566 15.2099 3.02037ZM4.57514 6.06694C4.29724 6.13968 3.84706 6.37164 3.64598 6.54575C3.28043 6.86223 3.18504 7.04038 2.33512 8.99353L1.53497 10.8323L1.34036 10.9416C1.23337 11.0018 1.00984 11.1873 0.843721 11.3539C0.395478 11.8035 0.172271 12.2201 0.0531406 12.8295C-0.00988923 13.1519 -0.0202652 16.1428 0.0405135 16.4779C0.102383 16.8194 0.297627 17.1818 0.562057 17.4462C1.44813 18.3324 2.93109 18.1203 3.51542 17.024C3.67612 16.7225 3.72804 16.5247 3.754 16.1151L3.77686 15.7546H8.26984H12.7628L12.7779 16.1503C12.795 16.597 12.8674 16.8474 13.0647 17.1425C13.5098 17.8083 14.2988 18.1293 15.053 17.9516C15.6723 17.8056 16.2194 17.3091 16.4136 16.7169C16.4768 16.5242 16.4812 16.3907 16.4812 14.6642C16.4812 12.8259 16.4808 12.8164 16.3988 12.5553C16.2447 12.0645 15.9105 11.5249 15.6175 11.2939L15.5139 11.2122L15.3073 11.3377C14.9746 11.5398 14.2476 11.8783 14.0205 11.937C13.7522 12.0062 13.2659 12.0063 13.0007 11.9373C12.5406 11.8174 11.5781 11.2963 10.8468 10.7712L10.4884 10.5138H6.91625C4.53086 10.5138 3.34409 10.502 3.34409 10.4782C3.34409 10.4587 3.59698 9.8622 3.90605 9.15276C4.35939 8.11217 4.49354 7.83673 4.60011 7.72759C4.82649 7.49577 4.88294 7.48894 6.57254 7.48894C7.75319 7.48894 8.06077 7.47976 8.04551 7.44498C7.87735 7.06149 7.72758 6.59091 7.6202 6.10841L7.59867 6.01168L6.18363 6.014C5.07126 6.01583 4.72723 6.02716 4.57514 6.06694ZM2.69339 12.8224C2.11402 13.1319 2.11009 13.8802 2.68625 14.1766C2.81087 14.2407 2.88516 14.2446 3.79687 14.2349C4.77313 14.2245 4.77401 14.2245 4.90373 14.1366C4.97513 14.0883 5.07681 13.9867 5.12968 13.911C5.21409 13.7901 5.22584 13.7404 5.22584 13.5039C5.22584 13.2747 5.21276 13.2152 5.13791 13.1047C5.08955 13.0332 4.98807 12.9315 4.91238 12.8786L4.77478 12.7825L3.78685 12.7742C2.93718 12.7672 2.78414 12.7739 2.69339 12.8224ZM11.6976 12.8224C11.1183 13.1319 11.1143 13.8802 11.6905 14.1766C11.8151 14.2407 11.8894 14.2446 12.8011 14.2349C13.7774 14.2245 13.7783 14.2245 13.908 14.1366C13.9794 14.0883 14.0811 13.9867 14.1339 13.911C14.2183 13.7901 14.2301 13.7404 14.2301 13.5039C14.2301 13.2747 14.217 13.2152 14.1422 13.1047C14.0938 13.0332 13.9923 12.9315 13.9166 12.8786L13.779 12.7825L12.7911 12.7742C11.9414 12.7672 11.7884 12.7739 11.6976 12.8224Z" fill="#626E79"/>
</svg>
