<svg width="104" height="90" viewBox="0 0 104 90" fill="none" xmlns="http://www.w3.org/2000/svg">
<path fill-rule="evenodd" clip-rule="evenodd" d="M51.1764 6.85229C51.7942 6.85229 52.4121 6.85229 53.0299 6.85229C53.0299 7.12502 53.0299 7.39776 53.0299 7.67048C52.3435 7.67048 51.6569 7.67048 50.9705 7.67048C50.9567 7.37211 51.0253 7.09937 51.1764 6.85229Z" fill="#F49727"/>
<path fill-rule="evenodd" clip-rule="evenodd" d="M47.8812 7.05688C48.2245 7.05688 48.5676 7.05688 48.9109 7.05688C48.9109 7.32961 48.9109 7.60235 48.9109 7.87507C48.2822 7.91219 47.6643 7.94627 47.0574 7.97734C46.8616 7.83058 46.8274 7.66011 46.9545 7.46598C47.2885 7.34347 47.5974 7.2071 47.8812 7.05688Z" fill="#F49122"/>
<path fill-rule="evenodd" clip-rule="evenodd" d="M55.0889 7.26147C55.7112 7.32366 56.329 7.42593 56.9423 7.56829C57.1147 7.77515 57.1833 8.01377 57.1483 8.2842C56.452 8.29249 55.7656 8.22429 55.0889 8.07966C55.0889 7.80694 55.0889 7.5342 55.0889 7.26147Z" fill="#F4942C"/>
<path fill-rule="evenodd" clip-rule="evenodd" d="M43.9682 8.07959C44.3115 8.07959 44.6546 8.07959 44.9979 8.07959C45.043 8.31993 44.9744 8.52448 44.7919 8.69323C44.2946 8.85793 43.8139 9.06247 43.3504 9.30686C43.1444 9.23869 43.0071 9.10232 42.9385 8.89777C43.187 8.48027 43.5303 8.20753 43.9682 8.07959Z" fill="#F3982B"/>
<path fill-rule="evenodd" clip-rule="evenodd" d="M59.002 8.28418C60.0096 8.3337 60.6274 8.81097 60.8554 9.716C59.8478 9.66648 59.2299 9.18921 59.002 8.28418Z" fill="#F6982C"/>
<path fill-rule="evenodd" clip-rule="evenodd" d="M40.4671 9.71582C40.7416 9.71582 41.0163 9.71582 41.2909 9.71582C41.3259 9.98625 41.2573 10.2249 41.0849 10.4317C40.6191 10.6458 40.1728 10.8845 39.7463 11.1476C39.4827 11.1244 39.3111 10.9881 39.2314 10.7385C39.6472 10.3929 40.0591 10.052 40.4671 9.71582Z" fill="#F4962B"/>
<path fill-rule="evenodd" clip-rule="evenodd" d="M66.6216 20.7612C66.3087 21.2769 65.9654 21.7883 65.5919 22.2953C65.2838 22.399 65.0434 22.2968 64.8711 21.9885C63.5928 19.9271 62.5975 17.7452 61.8849 15.4431C61.2416 13.0056 62.0653 11.267 64.3562 10.2272C68.0008 10.098 69.5453 11.8366 68.9899 15.4431C68.3671 17.2933 67.5777 19.066 66.6216 20.7612Z" fill="#F28F1C"/>
<path fill-rule="evenodd" clip-rule="evenodd" d="M64.974 12.375C66.4537 12.4462 67.0374 13.1962 66.7245 14.625C65.4174 15.843 64.4907 15.6044 63.9443 13.9091C64.0125 13.1973 64.3558 12.6859 64.974 12.375Z" fill="#FAF5EE"/>
<path fill-rule="evenodd" clip-rule="evenodd" d="M37.1722 11.9658C37.3781 11.9658 37.584 11.9658 37.79 11.9658C37.8223 12.2467 37.7879 12.5195 37.687 12.784C37.215 13.0478 36.8031 13.3887 36.4514 13.8067C36.1703 13.5832 36.1015 13.3105 36.2454 12.9885C36.597 12.6741 36.9059 12.3332 37.1722 11.9658Z" fill="#F38F22"/>
<path fill-rule="evenodd" clip-rule="evenodd" d="M34.083 15.0342C34.3576 15.0342 34.6323 15.0342 34.9068 15.0342C34.7554 15.81 34.3436 16.4237 33.6712 16.8751C33.4652 16.8069 33.3279 16.6705 33.2593 16.466C33.5453 15.9817 33.8198 15.5045 34.083 15.0342Z" fill="#F39428"/>
<path fill-rule="evenodd" clip-rule="evenodd" d="M61.8851 15.4431C62.5976 17.7453 63.5929 19.9271 64.8712 21.9886C65.0436 22.2968 65.2839 22.3991 65.592 22.2954C65.9656 21.7883 66.3089 21.277 66.6217 20.7613C68.3681 23.2611 69.2604 26.0566 69.2989 29.1477C68.8603 37.1123 64.9474 42.6008 57.5603 45.6136C47.6008 48.1833 40.2899 44.9447 35.6276 35.8977C32.6889 27.1323 34.9884 20.0754 42.5266 14.7272C49.1297 11.1416 55.5827 11.3802 61.8851 15.4431Z" fill="#2517DE"/>
<path fill-rule="evenodd" clip-rule="evenodd" d="M36.3484 26.6932C36.3149 27.1753 36.3491 27.6525 36.4514 28.125C36.5373 28.3819 36.7088 28.5183 36.9663 28.5341C36.9329 28.9487 36.9673 29.3578 37.0692 29.7613C38.5096 30.852 39.9512 31.9428 41.394 33.0341C41.3602 33.9862 41.3602 34.9406 41.394 35.8977C42.1584 36.998 43.1196 37.8845 44.2772 38.5568C44.6069 39.8121 45.0188 41.0394 45.5128 42.2386C46.3518 43.2315 47.2785 44.118 48.293 44.8977C48.4594 44.8347 48.5968 44.7324 48.7049 44.5909C48.3447 44.3266 47.9672 44.0881 47.5722 43.875C47.4208 43.39 47.2493 42.9126 47.0574 42.4432C47.2633 42.1022 47.5378 41.8295 47.8811 41.625C47.8381 41.5051 47.7693 41.4028 47.6752 41.3182C48.0743 40.8129 48.3144 40.2333 48.396 39.5795C48.7722 39.3425 49.1153 39.0698 49.4257 38.7613C49.5764 38.0219 49.8509 37.3402 50.2494 36.7159C50.4138 36.3561 50.3794 36.0151 50.1465 35.6932C49.2879 35.2554 48.3956 34.8803 47.4692 34.5682C47.2159 33.7715 46.6667 33.3624 45.8217 33.3409C44.932 32.418 43.8338 31.9066 42.5267 31.8068C41.2546 33.0883 40.5338 32.8156 40.3643 30.9886C40.1561 30.8174 39.9157 30.7493 39.6435 30.7841C39.614 30.4237 39.6828 30.0827 39.8494 29.7613C39.7465 29.6932 39.6435 29.6249 39.5405 29.5568C39.1929 30.2124 38.781 30.2807 38.3049 29.7613C37.7886 27.8358 38.5094 26.9495 40.4673 27.1023C40.4057 27.5326 40.4743 27.9417 40.6732 28.3295C40.8417 27.7963 40.9446 27.2508 40.9821 26.6932C41.6424 25.9777 42.1228 25.1595 42.4237 24.2386C42.9161 23.7751 43.4309 23.3319 43.9682 22.9091C44.4635 22.8516 44.4635 22.9878 43.9682 23.3182C44.4071 23.2368 44.819 23.0322 45.2039 22.7045C45.0087 22.6057 44.8027 22.5718 44.5861 22.6023C44.6423 22.2032 44.5051 21.8964 44.1742 21.6818C44.3116 21.5454 44.4487 21.4091 44.5861 21.2727C45.1604 21.2234 45.7097 21.087 46.2336 20.8636C46.3487 20.7153 46.4173 20.5449 46.4395 20.3523C46.1687 19.771 45.9628 19.1574 45.8217 18.5113C45.6203 18.6088 45.4488 18.7452 45.3069 18.9204C45.2049 18.5169 45.1705 18.1078 45.2039 17.6932C44.2794 17.8071 43.7646 18.3525 43.6593 19.3295C43.4217 19.5838 43.147 19.7884 42.8356 19.9432C42.1749 21.3439 42.0034 21.2756 42.3207 19.7386C41.7746 19.3108 41.6028 18.7653 41.8059 18.1023C42.822 17.2412 43.8861 16.4571 44.998 15.75C44.4487 15.6818 43.8997 15.6136 43.3504 15.5454C43.6937 15.375 44.0368 15.2045 44.3801 15.0341C44.8919 15.2758 45.3726 15.2076 45.8217 14.8295C45.7136 14.6879 45.5762 14.5856 45.4098 14.5227C46.7938 13.8892 48.2353 13.5483 49.7346 13.5C49.394 14.5192 48.8791 15.4397 48.19 16.2613C47.8852 17.2118 48.1254 17.9618 48.9108 18.5113C49.3717 17.9385 49.7836 17.3248 50.1465 16.6704C50.9157 16.2109 51.7052 15.8018 52.5148 15.4432C52.5947 14.7581 52.5603 14.0763 52.4118 13.3977C55.3973 13.4912 58.1431 14.3435 60.6494 15.9545C60.4997 16.2406 60.3967 16.5475 60.3405 16.875C59.9976 16.3978 59.5514 15.9546 59.0019 15.5454C58.5058 15.1963 57.9568 15.0258 57.3544 15.0341C57.2699 16.2861 57.3729 17.5133 57.6633 18.7159C58.4078 18.6972 58.8882 19.1063 59.1049 19.9432C59.1735 19.875 59.2422 19.8068 59.3108 19.7386C59.2085 19.3912 59.2429 19.0503 59.4138 18.7159C58.8689 18.1285 58.6973 17.4467 58.8989 16.6704C59.1352 17.1268 59.3411 17.6041 59.5168 18.1023C59.8926 18.2256 60.2703 18.3619 60.6494 18.5113C60.5121 18.6477 60.3749 18.7841 60.2376 18.9204C60.3072 19.3613 60.3072 19.8385 60.2376 20.3523C59.7571 20.3523 59.2764 20.3523 58.796 20.3523C58.8347 20.0243 58.7317 19.7516 58.4871 19.5341C58.3645 19.8202 58.3989 20.0929 58.59 20.3523C58.1499 20.6055 57.8752 20.9804 57.7663 21.4773C57.423 21.6818 57.0799 21.8863 56.7366 22.0909C57.3332 22.4417 57.6079 22.953 57.5603 23.625C57.0741 23.5894 56.5936 23.5213 56.1187 23.4204C56.0119 24.3102 56.2178 25.0944 56.7366 25.7727C56.1842 26.8691 55.4634 27.8578 54.5742 28.7386C54.4498 29.6981 54.3812 30.6528 54.3682 31.6023C54.8088 32.3057 55.3236 32.9535 55.9128 33.5454C56.7734 33.5454 57.6314 33.4432 58.4871 33.2386C58.9167 33.4264 59.3629 33.5628 59.8257 33.6477C59.7579 34.9325 59.7237 36.2278 59.7227 37.5341C59.4375 37.749 59.2315 38.0217 59.1049 38.3523C59.0682 39.401 58.8965 40.4237 58.59 41.4204C58.693 41.4885 58.796 41.5569 58.8989 41.625C59.4261 41.4143 59.941 41.1756 60.4435 40.9091C61.4499 39.9095 62.4454 38.9207 63.4296 37.9432C63.7099 36.9658 64.0532 36.0114 64.4593 35.0795C65.4736 34.3577 66.1258 33.4031 66.4158 32.2159C66.3472 32.0795 66.2784 31.9432 66.2098 31.8068C65.9814 32.0298 65.7755 32.0298 65.592 31.8068C66.5943 31.1533 67.2809 30.267 67.6514 29.1477C67.6292 28.955 67.5606 28.7846 67.4455 28.6363C67.1726 28.6666 66.9323 28.6327 66.7247 28.5341C66.4073 28.1297 66.3044 27.7206 66.4158 27.3068C66.7447 27.8885 67.2251 28.2976 67.8574 28.5341C67.9791 36.2925 64.4095 41.6448 57.1484 44.5909C47.8492 46.9775 41.0188 43.9435 36.6574 35.4886C35.1476 32.0187 34.9417 28.4731 36.0395 24.8523C36.1429 25.4685 36.2459 26.0822 36.3484 26.6932Z" fill="#F6F6F9"/>
<path fill-rule="evenodd" clip-rule="evenodd" d="M52.6177 16.4658C53.0981 16.4658 53.5788 16.4658 54.0593 16.4658C54.064 17.002 53.7893 17.2747 53.2355 17.284C52.8302 17.1613 52.6243 16.8885 52.6177 16.4658Z" fill="#3424DE"/>
<path fill-rule="evenodd" clip-rule="evenodd" d="M70.1229 16.6704C70.9876 16.9498 71.3995 17.5634 71.3585 18.5113C70.4938 18.2319 70.0819 17.6183 70.1229 16.6704Z" fill="#F4962D"/>
<path fill-rule="evenodd" clip-rule="evenodd" d="M31.818 18.5115C32.024 18.5115 32.2299 18.5115 32.4358 18.5115C32.4441 19.1097 32.2725 19.6551 31.921 20.1478C31.7128 20.319 31.4724 20.3872 31.2002 20.3524C31.2305 19.6791 31.4364 19.0655 31.818 18.5115Z" fill="#F49021"/>
<path fill-rule="evenodd" clip-rule="evenodd" d="M55.9129 18.9204C56.1672 18.9657 56.3731 19.1021 56.5307 19.3295C56.9893 19.9679 57.3326 20.6496 57.5604 21.375C57.2218 21.3312 56.9129 21.3995 56.6336 21.5795C56.5651 21.1023 56.4963 20.6249 56.4277 20.1477C56.3873 20.6394 56.1472 20.9804 55.7069 21.1704C55.6383 21 55.5696 20.8294 55.501 20.659C55.6542 20.2797 55.8601 19.9388 56.1188 19.6363C56.0181 19.4034 55.9495 19.1648 55.9129 18.9204Z" fill="#4F3BDC"/>
<path fill-rule="evenodd" clip-rule="evenodd" d="M71.9764 20.1477C72.786 20.4566 73.1291 21.0702 73.0062 21.9886C72.7339 22.0234 72.4936 21.9553 72.2854 21.7841C72.1707 21.3515 71.9989 20.9424 71.7705 20.5568C71.8453 20.417 71.9138 20.2806 71.9764 20.1477Z" fill="#F69426"/>
<path fill-rule="evenodd" clip-rule="evenodd" d="M46.0276 21.1704C46.6036 21.2659 46.8783 21.6067 46.8514 22.1931C46.4181 22.2543 46.0062 22.1862 45.6157 21.9886C45.8484 21.7591 45.9858 21.4862 46.0276 21.1704Z" fill="#4634D4"/>
<path fill-rule="evenodd" clip-rule="evenodd" d="M30.1703 22.1931C30.3762 22.1931 30.5822 22.1931 30.7881 22.1931C30.7784 22.8207 30.6755 23.4343 30.4792 24.034C30.271 24.2052 30.0307 24.2733 29.7584 24.2386C29.7195 23.5151 29.8566 22.8333 30.1703 22.1931Z" fill="#F59629"/>
<path fill-rule="evenodd" clip-rule="evenodd" d="M73.2121 23.8296C73.4172 23.812 73.5888 23.8803 73.727 24.0342C73.9636 24.6259 74.0666 25.2395 74.0359 25.8751C73.7636 25.9098 73.5233 25.8417 73.3151 25.6705C73.1359 25.0334 73.1017 24.4197 73.2121 23.8296Z" fill="#F5972A"/>
<path fill-rule="evenodd" clip-rule="evenodd" d="M60.0315 23.0115C60.5669 23.3017 61.0818 23.6425 61.576 24.0342C61.6735 24.5004 61.8794 24.9095 62.1939 25.2615C62.3887 24.2437 62.6976 24.2437 63.1206 25.2615C63.5708 25.409 64.0171 25.5452 64.4592 25.6706C64.6122 26.0676 64.5778 26.4425 64.3562 26.7956C63.6268 26.9696 62.9404 26.8674 62.2968 26.4887C62.1144 26.6575 62.0458 26.862 62.0909 27.1024C61.5007 26.8449 60.8829 26.6403 60.2374 26.4887C60.2537 26.1962 60.1851 25.9234 60.0315 25.6706C58.9649 25.4967 57.9352 25.4967 56.9424 25.6706C57.8271 25.2787 58.3078 24.5967 58.384 23.6251C58.7755 23.6388 59.1529 23.5705 59.5166 23.4206C60.0206 23.9444 60.5696 24.4216 61.1642 24.8524C61.3015 24.6478 61.3015 24.4433 61.1642 24.2387C60.5991 23.9851 60.2216 23.576 60.0315 23.0115Z" fill="#E7E5F7"/>
<path fill-rule="evenodd" clip-rule="evenodd" d="M29.1407 26.2842C29.4152 26.2842 29.6899 26.2842 29.9644 26.2842C29.9405 26.9715 29.872 27.6532 29.7585 28.3296C29.4862 28.3644 29.2459 28.2963 29.0377 28.1251C28.9358 27.5051 28.9699 26.8915 29.1407 26.2842Z" fill="#F69835"/>
<path fill-rule="evenodd" clip-rule="evenodd" d="M36.3484 26.6931C36.7238 27.2078 36.9298 27.8214 36.9662 28.534C36.7088 28.5183 36.5373 28.3818 36.4514 28.1249C36.349 27.6524 36.3148 27.1752 36.3484 26.6931Z" fill="#9A96E9"/>
<path fill-rule="evenodd" clip-rule="evenodd" d="M73.8296 27.7158C74.0347 27.6982 74.2063 27.7666 74.3445 27.9204C74.447 28.5303 74.4814 29.144 74.4474 29.7613C74.1729 29.7613 73.8982 29.7613 73.6237 29.7613C73.5728 29.0579 73.6414 28.3761 73.8296 27.7158Z" fill="#F49328"/>
<path fill-rule="evenodd" clip-rule="evenodd" d="M64.3564 27.7158C64.6221 27.83 64.7937 28.0345 64.8713 28.3295C65.0183 28.9625 65.2243 29.5762 65.4891 30.1704C65.6265 30.5113 65.6265 30.8521 65.4891 31.1931C64.9701 30.0849 64.5927 28.9257 64.3564 27.7158Z" fill="#D4D0F5"/>
<path fill-rule="evenodd" clip-rule="evenodd" d="M29.1406 30.375C29.3465 30.375 29.5525 30.375 29.7584 30.375C29.7467 30.8626 29.8155 31.34 29.9644 31.8068C29.9215 32.356 29.6812 32.4923 29.2436 32.2159C29.141 31.606 29.1066 30.9923 29.1406 30.375Z" fill="#F38F1C"/>
<path fill-rule="evenodd" clip-rule="evenodd" d="M73.6238 31.8069C73.8297 31.8069 74.0357 31.8069 74.2416 31.8069C74.173 32.4886 74.1043 33.1706 74.0357 33.8523C73.6555 33.9092 73.3808 33.7728 73.2119 33.4432C73.3497 32.8916 73.4871 32.3463 73.6238 31.8069Z" fill="#F5962B"/>
<path fill-rule="evenodd" clip-rule="evenodd" d="M29.7584 34.2613C30.0306 34.2265 30.2709 34.2946 30.4792 34.4658C30.6754 35.0655 30.7784 35.6792 30.7881 36.3067C30.5461 36.3515 30.3401 36.2834 30.1702 36.1022C29.8751 35.5227 29.7378 34.909 29.7584 34.2613Z" fill="#F59327"/>
<path fill-rule="evenodd" clip-rule="evenodd" d="M72.8 35.6931C73.1078 35.6757 73.3138 35.812 73.4178 36.1022C73.2576 36.7238 72.9828 37.2694 72.594 37.7386C72.3428 37.6594 72.2054 37.489 72.1821 37.2272C72.4099 36.7181 72.6158 36.2067 72.8 35.6931Z" fill="#F59626"/>
<path fill-rule="evenodd" clip-rule="evenodd" d="M30.9939 37.3295C31.2766 37.2974 31.5513 37.3316 31.8176 37.4318C32.5258 37.9487 33.1437 38.5623 33.6711 39.2727C34.6322 39.3408 35.5931 39.4092 36.5543 39.4773C37.0757 39.6025 37.2472 39.9093 37.0691 40.3977C36.4706 40.9167 35.8184 41.3599 35.1127 41.7273C35.4354 42.4483 35.7785 43.1642 36.1424 43.875C36.8117 43.938 37.4981 43.9722 38.2018 43.9773C38.4763 44.2499 38.4763 44.5228 38.2018 44.7955C37.4396 45.1379 36.6844 45.4788 35.9364 45.8182C35.6016 46.3557 35.1897 46.8329 34.7008 47.25C34.4364 47.3899 34.196 47.3558 33.98 47.1477C33.9596 46.432 34.1312 45.7503 34.4948 45.1023C34.2125 44.3776 33.8006 43.7298 33.2592 43.1591C32.4692 43.415 31.7142 43.7899 30.9939 44.2841C30.3777 44.1859 30.1373 43.8449 30.2731 43.2614C30.7346 42.4113 31.1808 41.5591 31.6117 40.7045C31.1071 39.8835 30.7638 38.9972 30.582 38.0455C30.6804 37.7789 30.8178 37.5404 30.9939 37.3295Z" fill="#F3901D"/>
<path fill-rule="evenodd" clip-rule="evenodd" d="M71.1524 39.375C71.3583 39.375 71.5643 39.375 71.7702 39.375C71.783 40.1678 71.4741 40.7815 70.8435 41.2159C70.5799 41.1928 70.4083 41.0564 70.3286 40.8068C70.6577 40.3572 70.9322 39.88 71.1524 39.375Z" fill="#F59C38"/>
<path fill-rule="evenodd" clip-rule="evenodd" d="M69.0933 42.6477C69.2993 42.6477 69.5052 42.6477 69.7111 42.6477C69.6176 43.1877 69.3773 43.6649 68.9903 44.0795C68.7111 44.2595 68.4022 44.3278 68.0636 44.2841C68.0329 44.0689 68.0671 43.8643 68.1666 43.6704C68.5181 43.356 68.827 43.0151 69.0933 42.6477Z" fill="#F49326"/>
<path fill-rule="evenodd" clip-rule="evenodd" d="M66.2099 45.5115C66.4844 45.5115 66.7591 45.5115 67.0336 45.5115C66.9183 46.2726 66.4722 46.75 65.695 46.9433C65.4769 46.9167 65.3054 46.8144 65.1802 46.6365C65.5659 46.2879 65.9092 45.913 66.2099 45.5115Z" fill="#F49527"/>
<path fill-rule="evenodd" clip-rule="evenodd" d="M37.1723 46.1249C37.9262 46.0942 38.1322 46.401 37.7901 47.0453C37.1255 47.0339 36.9196 46.7271 37.1723 46.1249Z" fill="#F1922C"/>
<path fill-rule="evenodd" clip-rule="evenodd" d="M39.0259 47.5569C40.0076 47.5082 40.5912 47.9173 40.7764 48.7841C40.7078 48.8522 40.639 48.9206 40.5704 48.9887C39.8043 48.7381 39.2895 48.2607 39.0259 47.5569Z" fill="#F59626"/>
<path fill-rule="evenodd" clip-rule="evenodd" d="M63.3268 47.7615C63.777 47.7637 63.9485 47.9683 63.8416 48.3751C63.2905 48.7705 62.7071 49.0092 62.0911 49.091C61.8953 48.9442 61.8611 48.7738 61.9882 48.5797C62.4647 48.3275 62.911 48.0546 63.3268 47.7615Z" fill="#F7972C"/>
<path fill-rule="evenodd" clip-rule="evenodd" d="M42.5269 49.3978C43.3394 49.3933 44.0258 49.6659 44.5863 50.2159C44.5178 50.4205 44.3804 50.5569 44.1745 50.625C43.7018 50.4344 43.2212 50.264 42.7329 50.1137C42.5605 49.9069 42.4919 49.6682 42.5269 49.3978Z" fill="#F49729"/>
<path fill-rule="evenodd" clip-rule="evenodd" d="M59.4137 49.6023C59.6882 49.6023 59.963 49.6023 60.2375 49.6023C60.2725 49.8727 60.2039 50.1114 60.0316 50.3182C59.4969 50.5506 58.9477 50.721 58.384 50.8296C58.3301 50.5272 58.3986 50.2546 58.59 50.0114C58.9042 49.9103 59.1788 49.7739 59.4137 49.6023Z" fill="#F7972A"/>
<path fill-rule="evenodd" clip-rule="evenodd" d="M46.4395 50.625C47.0619 50.6872 47.6797 50.7895 48.293 50.9318C48.5692 51.3053 48.4662 51.544 47.9841 51.6477C47.5444 51.5195 47.0981 51.4172 46.6455 51.3409C46.4731 51.1341 46.4045 50.8954 46.4395 50.625Z" fill="#F49224"/>
<path fill-rule="evenodd" clip-rule="evenodd" d="M54.4712 50.8296C55.1576 50.8296 55.8442 50.8296 56.5306 50.8296C56.5306 51.0341 56.5306 51.2387 56.5306 51.4432C55.8442 51.5113 55.1576 51.5797 54.4712 51.6478C54.4712 51.3751 54.4712 51.1022 54.4712 50.8296Z" fill="#F49323"/>
<path fill-rule="evenodd" clip-rule="evenodd" d="M50.5583 51.0342C51.1116 51.0007 51.6609 51.0348 52.2058 51.1365C52.3782 51.3433 52.4467 51.582 52.4117 51.8524C51.7253 51.8524 51.0387 51.8524 50.3523 51.8524C50.3385 51.5539 50.4071 51.2813 50.5583 51.0342Z" fill="#F89D35"/>
<path fill-rule="evenodd" clip-rule="evenodd" d="M32.6414 57.1705C35.388 57.1364 38.134 57.1705 40.879 57.2728C42.3803 57.5363 43.3756 58.3886 43.8651 59.8296C43.9681 62.4879 44.0025 65.147 43.9681 67.8069C42.801 67.8069 41.6342 67.8069 40.4671 67.8069C40.5015 65.4196 40.4671 63.0332 40.3641 60.6478C40.2612 60.2729 40.0208 60.0342 39.6434 59.9319C38.6159 59.8298 37.5862 59.7957 36.5542 59.8296C36.5542 62.4887 36.5542 65.1478 36.5542 67.8069C35.456 67.8069 34.3575 67.8069 33.2592 67.8069C33.2248 65.4878 33.2592 63.1694 33.3622 60.8523C33.5238 60.487 33.764 60.1802 34.083 59.9319C33.4688 59.83 32.851 59.7959 32.2295 59.8296C32.2911 58.9239 32.4282 58.0376 32.6414 57.1705Z" fill="#2113DF"/>
<path fill-rule="evenodd" clip-rule="evenodd" d="M52 56.966C54.8061 56.4694 56.7626 57.4921 57.8693 60.0342C58.0067 61.3979 58.0067 62.7614 57.8693 64.1251C57.3802 66.3831 55.973 67.6443 53.6475 67.9092C52.8923 68.0456 52.1374 68.0456 51.3822 67.9092C51.1952 67.0662 51.2296 66.2139 51.4851 65.3524C53.6831 65.5553 54.7472 64.5667 54.6772 62.3864C54.8549 60.2446 53.894 59.4265 51.7941 59.9319C51.2792 60.1706 50.9017 60.5455 50.6614 61.0569C50.1058 63.2774 49.7281 65.5274 49.5287 67.8069C48.2931 67.8069 47.0574 67.8069 45.8218 67.8069C46.1995 65.6917 46.6114 63.5781 47.0574 61.466C46.7456 60.0231 46.4025 58.5913 46.0277 57.1705C47.0597 57.1366 48.0894 57.1707 49.1168 57.2728C49.3351 57.8326 49.5069 58.4121 49.6317 59.0114C50.3315 58.2074 51.1208 57.5254 52 56.966Z" fill="#2213DF"/>
<path fill-rule="evenodd" clip-rule="evenodd" d="M80.0077 57.1705C82.5486 57.1364 85.0885 57.1705 87.6275 57.2728C89.0637 57.4726 89.9905 58.2567 90.4077 59.6251C90.5107 62.3515 90.5451 65.0789 90.5107 67.8069C89.3436 67.8069 88.1767 67.8069 87.0097 67.8069C87.0441 65.3513 87.0097 62.8968 86.9067 60.4433C86.7352 60.2729 86.5634 60.1023 86.3919 59.9319C84.1963 59.8296 81.9996 59.7955 79.8018 59.8296C79.9459 58.9505 80.0145 58.0642 80.0077 57.1705Z" fill="#2617E0"/>
<path fill-rule="evenodd" clip-rule="evenodd" d="M25.8456 57.1704C27.4245 57.1704 29.0033 57.1704 30.5822 57.1704C30.5822 59.284 30.5822 61.3978 30.5822 63.5113C29.4839 63.5113 28.3855 63.5113 27.2872 63.5113C27.2872 62.284 27.2872 61.0568 27.2872 59.8295C26.7215 59.8935 26.1722 59.8254 25.6396 59.625C25.8318 58.8213 25.9004 58.0031 25.8456 57.1704Z" fill="#2416DE"/>
<path fill-rule="evenodd" clip-rule="evenodd" d="M59.4139 57.1704C60.9929 57.1704 62.5716 57.1704 64.1506 57.1704C64.1506 60.7158 64.1506 64.2614 64.1506 67.8068C62.9835 67.8068 61.8167 67.8068 60.6496 67.8068C60.6496 65.1477 60.6496 62.4886 60.6496 59.8295C60.1691 59.8295 59.6885 59.8295 59.208 59.8295C59.3275 58.9479 59.3962 58.0616 59.4139 57.1704Z" fill="#2A1ADF"/>
<path fill-rule="evenodd" clip-rule="evenodd" d="M80.2138 62.0796C81.3121 62.0796 82.4106 62.0796 83.5089 62.0796C83.5089 63.9886 83.5089 65.8978 83.5089 67.8069C82.3418 67.8069 81.1749 67.8069 80.0079 67.8069C79.9451 65.8807 80.0136 63.9716 80.2138 62.0796Z" fill="#2417DF"/>
<path fill-rule="evenodd" clip-rule="evenodd" d="M72.3882 56.966C76.4755 56.6277 78.4663 58.5026 78.3605 62.591C78.0351 66.7151 75.7697 68.522 71.5644 68.0115C71.5514 67.0495 71.6202 66.0949 71.7704 65.1479C73.997 65.459 75.0267 64.5044 74.8595 62.2842C74.9964 60.2058 74.0353 59.4218 71.9763 59.9319C71.4336 60.3331 71.0559 60.8444 70.8436 61.466C70.4521 63.5123 70.0746 65.5578 69.711 67.6024C68.5519 67.8059 67.3851 67.8742 66.21 67.8069C66.5026 65.7061 66.9145 63.6266 67.4456 61.5683C66.9697 60.1164 66.5578 58.6505 66.21 57.1706C67.3082 57.1706 68.4067 57.1706 69.505 57.1706C69.5697 57.8756 69.7414 58.5574 70.0199 59.216C70.5166 58.1426 71.3062 57.3927 72.3882 56.966Z" fill="#2414DF"/>
<path fill-rule="evenodd" clip-rule="evenodd" d="M12.6653 57.1705C15.412 57.1364 18.1579 57.1705 20.9029 57.2728C22.7935 57.5142 23.8576 58.5711 24.095 60.4433C24.198 62.8968 24.2324 65.3513 24.198 67.8069C20.5597 67.8069 16.9214 67.8069 13.2831 67.8069C13.2488 65.4878 13.2831 63.1694 13.3861 60.8523C13.5477 60.487 13.7879 60.1802 14.1069 59.9319C13.4929 59.83 12.875 59.7959 12.2534 59.8296C12.3907 58.9433 12.528 58.0568 12.6653 57.1705Z" fill="#2314DF"/>
<path fill-rule="evenodd" clip-rule="evenodd" d="M16.7842 59.8296C17.8162 59.7956 18.8459 59.8298 19.8733 59.9319C20.062 60.0084 20.2336 60.1106 20.3881 60.2387C20.6837 61.8523 20.7866 63.4887 20.6971 65.1478C19.3928 65.1478 18.0885 65.1478 16.7842 65.1478C16.7842 63.375 16.7842 61.6024 16.7842 59.8296Z" fill="#F5F5F9"/>
<path fill-rule="evenodd" clip-rule="evenodd" d="M25.6394 76.3976C24.8861 78.4374 24.1309 80.4828 23.3741 82.534C22.5616 82.7367 21.7379 82.8048 20.9028 82.7385C21.6312 80.7048 22.3176 78.6593 22.9622 76.6022C21.658 76.6022 20.3536 76.6022 19.0493 76.6022C19.0493 75.3068 19.0493 74.0112 19.0493 72.7158C19.7358 72.7158 20.4223 72.7158 21.1087 72.7158C21.1087 73.3976 21.1087 74.0795 21.1087 74.7613C22.6189 74.7613 24.1293 74.7613 25.6394 74.7613C25.6394 75.3068 25.6394 75.8521 25.6394 76.3976Z" fill="#F38F1C"/>
<path fill-rule="evenodd" clip-rule="evenodd" d="M32.0239 72.5115C32.7791 72.5115 33.5341 72.5115 34.2893 72.5115C34.2893 73.2615 34.2893 74.0114 34.2893 74.7615C35.7309 74.7615 37.1724 74.7615 38.614 74.7615C38.648 75.3788 38.6136 75.9924 38.5111 76.6024C37.8098 78.5897 37.089 80.5671 36.3487 82.5342C35.5249 82.8069 34.7012 82.8069 33.8774 82.5342C34.6474 80.5804 35.334 78.603 35.9368 76.6024C34.6326 76.6024 33.3281 76.6024 32.0239 76.6024C32.0239 75.2387 32.0239 73.8752 32.0239 72.5115Z" fill="#F38F1C"/>
<path fill-rule="evenodd" clip-rule="evenodd" d="M95.0417 74.5569C96.4448 74.7596 97.8864 74.828 99.3665 74.7615C99.3665 75.307 99.3665 75.8523 99.3665 76.3978C98.6142 78.439 97.859 80.4845 97.1011 82.5342C96.2774 82.8069 95.4536 82.8069 94.6298 82.5342C95.3253 80.5634 96.0805 78.6202 96.8952 76.7047C95.524 76.6024 94.151 76.5684 92.7764 76.6024C92.7764 75.2387 92.7764 73.8752 92.7764 72.5115C93.5316 72.5115 94.2865 72.5115 95.0417 72.5115C95.0417 73.1932 95.0417 73.8752 95.0417 74.5569Z" fill="#F3901E"/>
<path fill-rule="evenodd" clip-rule="evenodd" d="M25.6396 76.3978C25.6396 75.8523 25.6396 75.307 25.6396 74.7615C24.1294 74.7615 22.619 74.7615 21.1089 74.7615C21.1089 74.0797 21.1089 73.3978 21.1089 72.716C20.4224 72.716 19.7359 72.716 19.0495 72.716C19.0495 74.0114 19.0495 75.307 19.0495 76.6024C18.8454 75.2771 18.7768 73.9134 18.8435 72.5115C19.6673 72.5115 20.491 72.5115 21.3148 72.5115C21.3148 73.1932 21.3148 73.8752 21.3148 74.5569C22.825 74.5569 24.3353 74.5569 25.8455 74.5569C25.9093 75.2141 25.8408 75.8278 25.6396 76.3978Z" fill="#F9C688"/>
<path fill-rule="evenodd" clip-rule="evenodd" d="M95.0415 74.5569C96.5517 74.5569 98.062 74.5569 99.5722 74.5569C99.5722 75.1705 99.5722 75.7842 99.5722 76.3978C99.5036 76.3978 99.4348 76.3978 99.3663 76.3978C99.3663 75.8523 99.3663 75.307 99.3663 74.7614C97.8862 74.8279 96.4446 74.7596 95.0415 74.5569Z" fill="#F8C486"/>
<path fill-rule="evenodd" clip-rule="evenodd" d="M53.6476 74.5568C56.6482 74.2305 58.0898 75.5601 57.9724 78.5454C58.1056 81.8232 56.5269 83.2209 53.2357 82.7386C53.1892 82.1763 53.2578 81.6308 53.4417 81.1022C54.0002 80.9533 54.5494 80.7829 55.0892 80.5908C55.3761 80.3513 55.5478 80.0445 55.6041 79.6704C55.7414 78.9203 55.7414 78.1705 55.6041 77.4204C55.3944 76.7693 54.9481 76.4967 54.2654 76.6022C53.5082 76.5687 52.9933 76.9096 52.7209 77.6249C52.4464 79.2613 52.1716 80.8977 51.8971 82.534C51.129 82.7304 50.3396 82.7985 49.5288 82.7386C49.7267 81.1587 50.0012 79.5904 50.3526 78.034C50.077 76.9393 49.8025 75.8483 49.5288 74.7613C50.2961 74.6952 51.0513 74.7636 51.7942 74.9658C51.9288 75.2962 52.0318 75.6372 52.1031 75.9886C52.5965 75.4635 53.1114 74.9863 53.6476 74.5568Z" fill="#F3901D"/>
<path fill-rule="evenodd" clip-rule="evenodd" d="M12.4593 76.8067C12.4593 78.7157 12.4593 80.625 12.4593 82.534C9.91938 82.534 7.37943 82.534 4.8395 82.534C4.80523 80.8281 4.83956 79.1236 4.94247 77.4204C5.33681 76.7521 5.09654 76.4794 4.22168 76.6022C4.22168 75.9885 4.22168 75.3749 4.22168 74.7613C6.35084 74.7273 8.47888 74.7613 10.6058 74.8635C11.6901 75.0877 12.3079 75.7355 12.4593 76.8067Z" fill="#F28F1B"/>
<path fill-rule="evenodd" clip-rule="evenodd" d="M14.1069 74.7615C15.2053 74.7615 16.3036 74.7615 17.402 74.7615C17.402 76.2614 17.402 77.7615 17.402 79.2615C16.6469 79.2615 15.8918 79.2615 15.1366 79.2615C15.1366 78.3752 15.1366 77.4887 15.1366 76.6024C14.7934 76.6024 14.4502 76.6024 14.1069 76.6024C14.1069 75.9887 14.1069 75.3751 14.1069 74.7615Z" fill="#F2901D"/>
<path fill-rule="evenodd" clip-rule="evenodd" d="M30.3761 74.7615C30.3761 77.3525 30.3761 79.9432 30.3761 82.5342C29.6897 82.5342 29.0031 82.5342 28.3167 82.5342C28.384 80.5198 28.3155 78.5427 28.1108 76.6024C27.7675 76.6024 27.4244 76.6024 27.0811 76.6024C27.1764 75.9924 27.245 75.3788 27.287 74.7615C28.3167 74.7615 29.3464 74.7615 30.3761 74.7615Z" fill="#F28C17"/>
<path fill-rule="evenodd" clip-rule="evenodd" d="M40.0557 74.7613C42.2685 74.6736 44.4653 74.7759 46.6458 75.0682C47.9362 75.8248 48.4852 76.9498 48.2933 78.4432C48.1654 82.1618 46.2431 83.5595 42.527 82.6363C40.6992 81.5625 39.9784 79.9603 40.3646 77.8295C40.5956 77.3951 40.9046 77.0201 41.2913 76.7045C40.885 76.6033 40.4731 76.5691 40.0557 76.6023C40.0557 75.9886 40.0557 75.375 40.0557 74.7613Z" fill="#F28F1C"/>
<path fill-rule="evenodd" clip-rule="evenodd" d="M75.0656 74.7615C75.0656 76.1933 75.0656 77.6251 75.0656 79.0569C74.3792 79.0569 73.6926 79.0569 73.0062 79.0569C73.0714 78.1974 73.0027 77.3792 72.8002 76.6024C72.4569 76.6024 72.1138 76.6024 71.7705 76.6024C71.8125 75.9851 71.8811 75.3714 71.9764 74.7615C73.0062 74.7615 74.0359 74.7615 75.0656 74.7615Z" fill="#F28E19"/>
<path fill-rule="evenodd" clip-rule="evenodd" d="M84.3328 76.1931C84.3328 78.3067 84.3328 80.4205 84.3328 82.534C83.0286 82.534 81.7241 82.534 80.4199 82.534C80.4199 81.9204 80.4199 81.3068 80.4199 80.6931C81.0377 80.6931 81.6556 80.6931 82.2734 80.6931C82.3076 79.464 82.2732 78.2367 82.1704 77.0113C81.7307 76.6476 81.2159 76.5112 80.6259 76.6022C80.6944 75.9205 80.7632 75.2385 80.8318 74.5568C82.0219 74.3948 83.086 74.6674 84.0239 75.3749C84.1868 75.6296 84.2898 75.9023 84.3328 76.1931Z" fill="#F28F1B"/>
<path fill-rule="evenodd" clip-rule="evenodd" d="M92.3644 81.9204C92.1782 82.0654 92.1096 82.2699 92.1585 82.534C89.9617 82.534 87.7651 82.534 85.5684 82.534C85.5684 81.9885 85.5684 81.4431 85.5684 80.8976C86.804 80.8976 88.0396 80.8976 89.2753 80.8976C89.3418 79.5636 89.2732 78.2682 89.0693 77.0113C88.9833 76.8636 88.8461 76.7613 88.6575 76.7044C87.63 76.6024 86.6003 76.5682 85.5684 76.6022C85.6637 75.9922 85.7323 75.3786 85.7743 74.7613C87.149 74.7273 88.522 74.7613 89.8931 74.8635C90.3767 74.9343 90.7541 75.173 91.0258 75.5794C91.3219 77.2614 91.4249 78.9661 91.3347 80.6931C91.678 80.6931 92.0211 80.6931 92.3644 80.6931C92.3644 81.1022 92.3644 81.5113 92.3644 81.9204Z" fill="#F28D19"/>
<path fill-rule="evenodd" clip-rule="evenodd" d="M62.9147 74.7613C64.9753 74.7273 67.0347 74.7613 69.0929 74.8635C69.9982 75.0129 70.5819 75.5242 70.8434 76.3976C70.9464 78.5102 70.9806 80.6237 70.9464 82.7385C70.1912 82.7385 69.4362 82.7385 68.681 82.7385C68.7152 80.8283 68.681 78.9191 68.5781 77.0113C68.4751 76.909 68.3721 76.8067 68.2692 76.7044C67.5171 76.6024 66.7621 76.5684 66.0038 76.6022C66.0946 78.3973 65.9917 80.1699 65.6949 81.9204C65.4449 82.2372 65.136 82.4757 64.7682 82.6363C63.9473 82.7383 63.1235 82.7725 62.2969 82.7385C62.3208 82.0513 62.3893 81.3695 62.5028 80.6931C62.9748 80.7454 63.4211 80.6773 63.8414 80.4885C63.9444 79.1948 63.9786 77.8994 63.9444 76.6022C63.5325 76.6022 63.1206 76.6022 62.7088 76.6022C62.8041 75.9922 62.8727 75.3786 62.9147 74.7613Z" fill="#F28F1D"/>
<path fill-rule="evenodd" clip-rule="evenodd" d="M7.10498 76.6023C8.00002 76.5683 8.89242 76.6025 9.78221 76.7046C9.88518 76.8068 9.98815 76.9091 10.0911 77.0114C10.194 78.2368 10.2283 79.4641 10.1941 80.6932C9.16439 80.6932 8.13468 80.6932 7.10498 80.6932C7.10498 79.3295 7.10498 77.966 7.10498 76.6023Z" fill="#FAF7F4"/>
<path fill-rule="evenodd" clip-rule="evenodd" d="M43.1447 76.6023C45.7441 76.2323 46.6708 77.3231 45.9249 79.875C45.4016 80.8096 44.612 81.1164 43.5566 80.7955C42.5985 79.8676 42.2896 78.7426 42.6298 77.4205C42.7662 77.1169 42.9379 76.8443 43.1447 76.6023Z" fill="#FAF6F2"/>
<path fill-rule="evenodd" clip-rule="evenodd" d="M76.3011 74.7615C77.3308 74.7615 78.3605 74.7615 79.3902 74.7615C79.3902 76.2614 79.3902 77.7615 79.3902 79.2615C78.6351 79.2615 77.8801 79.2615 77.1249 79.2615C77.1249 78.3752 77.1249 77.4887 77.1249 76.6024C76.7816 76.6024 76.4385 76.6024 76.0952 76.6024C76.0466 75.9665 76.1152 75.3528 76.3011 74.7615Z" fill="#F18E1C"/>
<path fill-rule="evenodd" clip-rule="evenodd" d="M30.3762 74.7615C30.5811 77.3844 30.6499 80.0435 30.5821 82.7387C29.7584 82.7387 28.9346 82.7387 28.1108 82.7387C28.1108 80.6933 28.1108 78.6478 28.1108 76.6024C28.3155 78.5427 28.3841 80.5198 28.3168 82.5342C29.0032 82.5342 29.6898 82.5342 30.3762 82.5342C30.3762 79.9432 30.3762 77.3525 30.3762 74.7615Z" fill="#F3B974"/>
<path fill-rule="evenodd" clip-rule="evenodd" d="M75.0652 74.7615C75.2694 76.2236 75.338 77.7235 75.2711 79.2615C74.4473 79.2615 73.6236 79.2615 72.7998 79.2615C72.7998 78.3752 72.7998 77.4887 72.7998 76.6024C73.0022 77.3792 73.071 78.1974 73.0057 79.0569C73.6921 79.0569 74.3788 79.0569 75.0652 79.0569C75.0652 77.6251 75.0652 76.1933 75.0652 74.7615Z" fill="#F6BD7B"/>
<path fill-rule="evenodd" clip-rule="evenodd" d="M84.3326 76.1931C84.5373 78.3382 84.6061 80.5201 84.5386 82.7386C83.097 82.7386 81.6554 82.7386 80.2138 82.7386C80.1494 82.0141 80.2181 81.3323 80.4198 80.6931C80.4198 81.3068 80.4198 81.9204 80.4198 82.534C81.724 82.534 83.0284 82.534 84.3326 82.534C84.3326 80.4205 84.3326 78.3067 84.3326 76.1931Z" fill="#F4BF79"/>
<path fill-rule="evenodd" clip-rule="evenodd" d="M89.0692 77.0115C89.2731 78.2684 89.3417 79.5638 89.2752 80.8978C88.0395 80.8978 86.8039 80.8978 85.5682 80.8978C85.5682 81.4434 85.5682 81.9887 85.5682 82.5342C87.765 82.5342 89.9616 82.5342 92.1583 82.5342C92.1095 82.2701 92.1781 82.0656 92.3643 81.9206C92.3643 82.1932 92.3643 82.4661 92.3643 82.7387C90.0304 82.7387 87.6962 82.7387 85.3623 82.7387C85.3623 82.057 85.3623 81.375 85.3623 80.6933C86.5979 80.6933 87.8336 80.6933 89.0692 80.6933C89.0692 79.466 89.0692 78.2387 89.0692 77.0115Z" fill="#F5B363"/>
<path fill-rule="evenodd" clip-rule="evenodd" d="M12.4596 76.8069C12.6643 78.7472 12.7329 80.7243 12.6656 82.7387C10.0204 82.806 7.41184 82.7377 4.83984 82.5342C7.37977 82.5342 9.91972 82.5342 12.4596 82.5342C12.4596 80.6251 12.4596 78.7159 12.4596 76.8069Z" fill="#F4B463"/>
</svg>
