<svg width="106" height="22" viewBox="0 0 106 22" fill="none" xmlns="http://www.w3.org/2000/svg">
<path d="M9.75118 1.65605C10.0518 1.00422 10.9782 1.00422 11.2789 1.65605L13.2845 6.00418C13.407 6.26983 13.6588 6.45275 13.9493 6.48719L18.7044 7.05099C19.4172 7.1355 19.7035 8.01657 19.1765 8.50393L15.6609 11.755C15.4461 11.9536 15.35 12.2496 15.407 12.5366L16.3402 17.2331C16.4801 17.9372 15.7306 18.4817 15.1042 18.1311L10.9259 15.7923C10.6706 15.6494 10.3594 15.6494 10.1042 15.7923L5.92583 18.1311C5.29946 18.4817 4.54998 17.9372 4.68988 17.2331L5.62308 12.5366C5.6801 12.2496 5.58393 11.9536 5.36914 11.755L1.85359 8.50394C1.32658 8.01657 1.61285 7.1355 2.32568 7.05099L7.08076 6.48719C7.37128 6.45275 7.62304 6.26983 7.74558 6.00418L9.75118 1.65605Z" fill="#695729"/>
<path d="M30.7813 1.65605C31.0819 1.00422 32.0083 1.00422 32.309 1.65605L34.3146 6.00418C34.4371 6.26983 34.6889 6.45275 34.9794 6.48719L39.7345 7.05099C40.4473 7.1355 40.7336 8.01657 40.2066 8.50393L36.691 11.755C36.4762 11.9536 36.3801 12.2496 36.4371 12.5366L37.3703 17.2331C37.5102 17.9372 36.7607 18.4817 36.1343 18.1311L31.956 15.7923C31.7007 15.6494 31.3895 15.6494 31.1343 15.7923L26.9559 18.1311C26.3296 18.4817 25.5801 17.9372 25.72 17.2331L26.6532 12.5366C26.7102 12.2496 26.614 11.9536 26.3992 11.755L22.8837 8.50394C22.3567 8.01657 22.6429 7.1355 23.3558 7.05099L28.1109 6.48719C28.4014 6.45275 28.6531 6.26983 28.7757 6.00418L30.7813 1.65605Z" fill="#695729"/>
<path d="M51.8114 1.65605C52.112 1.00422 53.0384 1.00422 53.3391 1.65605L55.3447 6.00418C55.4672 6.26983 55.719 6.45275 56.0095 6.48719L60.7646 7.05099C61.4774 7.1355 61.7637 8.01657 61.2367 8.50393L57.7211 11.755C57.5063 11.9536 57.4102 12.2496 57.4672 12.5366L58.4004 17.2331C58.5403 17.9372 57.7908 18.4817 57.1644 18.1311L52.9861 15.7923C52.7308 15.6494 52.4196 15.6494 52.1643 15.7923L47.986 18.1311C47.3596 18.4817 46.6102 17.9372 46.7501 17.2331L47.6833 12.5366C47.7403 12.2496 47.6441 11.9536 47.4293 11.755L43.9138 8.50394C43.3868 8.01657 43.673 7.1355 44.3859 7.05099L49.1409 6.48719C49.4315 6.45275 49.6832 6.26983 49.8058 6.00418L51.8114 1.65605Z" fill="#695729"/>
<path d="M72.8414 1.65605C73.142 1.00422 74.0685 1.00422 74.3691 1.65605L76.3747 6.00418C76.4972 6.26983 76.749 6.45275 77.0395 6.48719L81.7946 7.05099C82.5074 7.1355 82.7937 8.01657 82.2667 8.50393L78.7511 11.755C78.5364 11.9536 78.4402 12.2496 78.4972 12.5366L79.4304 17.2331C79.5703 17.9372 78.8208 18.4817 78.1945 18.1311L74.0161 15.7923C73.7608 15.6494 73.4497 15.6494 73.1944 15.7923L69.016 18.1311C68.3897 18.4817 67.6402 17.9372 67.7801 17.2331L68.7133 12.5366C68.7703 12.2496 68.6741 11.9536 68.4594 11.755L64.9438 8.50394C64.4168 8.01657 64.7031 7.1355 65.4159 7.05099L70.171 6.48719C70.4615 6.45275 70.7133 6.26983 70.8358 6.00418L72.8414 1.65605Z" fill="#695729"/>
<path d="M93.8715 1.65605C94.1721 1.00422 95.0985 1.00422 95.3992 1.65605L97.4048 6.00418C97.5273 6.26983 97.7791 6.45275 98.0696 6.48719L102.825 7.05099C103.538 7.1355 103.824 8.01657 103.297 8.50393L99.7812 11.755C99.5664 11.9536 99.4703 12.2496 99.5273 12.5366L100.461 17.2331C100.6 17.9372 99.8509 18.4817 99.2245 18.1311L95.0462 15.7923C94.7909 15.6494 94.4797 15.6494 94.2245 15.7923L90.0461 18.1311C89.4198 18.4817 88.6703 17.9372 88.8102 17.2331L89.7434 12.5366C89.8004 12.2496 89.7042 11.9536 89.4894 11.755L85.9739 8.50394C85.4469 8.01657 85.7332 7.1355 86.446 7.05099L91.2011 6.48719C91.4916 6.45275 91.7433 6.26983 91.8659 6.00418L93.8715 1.65605Z" fill="#695729"/>
</svg>
